<svg xmlns="http://www.w3.org/2000/svg" viewBox="0 0 128 128">
  <path fill="#B31B1B" d="M12 28h104v72H12z"/>
  <path fill="#FFF" d="M36.1 48.5h3.5l9.2 14v-14h3v19.1h-3.3L39 53.5v14.1h-3V48.5zm27.2 0h10c2.1 0 3.7.5 4.9 1.6 1.2 1.1 1.8 2.5 1.8 4.3v.1c0 1.4-.4 2.6-1.1 3.5-.7.9-1.7 1.6-2.8 1.9l4.5 7.8h-3.5l-4.1-7.1h-6.2v7.1h-3V48.5zm9.8 9.4c1.1 0 2-.3 2.6-.8s.9-1.2.9-2.1v-.1c0-1-.3-1.7-1-2.2-.6-.5-1.5-.7-2.7-.7h-6.6v5.9h6.8zm11.5-9.4h3v19.1h-3V48.5zm11.4 0h3.2l7.2 11.7 7.2-11.7h3.2v19.1h-3V53.1l-7.3 11.4h-.1L93 53.2v14.4h-3V48.5z"/>
</svg>
